HIERARCHY
ROOT hip
{
	OFFSET 0.000000 0.000000 0.000000 
	CHANNELS 6 Xposition Yposition Zposition Xrotation Zrotation Yrotation
	JOINT abdomen
	{
		OFFSET 0.000000 3.402643 0.000000 
		CHANNELS 3 Xrotation Zrotation Yrotation
		JOINT chest
		{
			OFFSET 0.000000 8.438565 -0.680529 
			CHANNELS 3 Xrotation Zrotation Yrotation
			JOINT neck
			{
				OFFSET 0.000000 10.207942 -0.272212 
				CHANNELS 3 Xrotation Zrotation Yrotation
				JOINT head
				{
					OFFSET 0.000000 3.130431 0.000000 
					CHANNELS 3 Xrotation Zrotation Yrotation
					End Site
					{
						OFFSET 0.000000 3.130435 0.000000 
					}
				}
			}
			JOINT lCollar
			{
				OFFSET 3.470700 6.669187 -0.816635 
				CHANNELS 3 Yrotation Zrotation Xrotation
				JOINT lShldr
				{
					OFFSET 3.198488 0.000000 0.000000 
					CHANNELS 3 Zrotation Yrotation Xrotation
					JOINT lForeArm
					{
						OFFSET 10.139888 0.000000 0.000000 
						CHANNELS 3 Yrotation Zrotation Xrotation
						JOINT lHand
						{
							OFFSET 8.370511 0.000000 0.000000 
							CHANNELS 3 Zrotation Yrotation Xrotation
							End Site
							{
								OFFSET 4.083176 0.000000 0.000000 
							}
						}
					}
				}
			}
			JOINT rCollar
			{
				OFFSET -3.470700 6.669187 -0.816635 
				CHANNELS 3 Yrotation Zrotation Xrotation
				JOINT rShldr
				{
					OFFSET -3.198488 0.000000 0.000000 
					CHANNELS 3 Zrotation Yrotation Xrotation
					JOINT rForeArm
					{
						OFFSET -10.139888 0.000000 0.000000 
						CHANNELS 3 Yrotation Zrotation Xrotation
						JOINT rHand
						{
							OFFSET -8.370511 0.000000 0.000000 
							CHANNELS 3 Zrotation Yrotation Xrotation
							End Site
							{
								OFFSET -4.083176 0.000000 0.000000 
							}
						}
					}
				}
			}
		}
	}
	JOINT lThigh
	{
		OFFSET 5.308129 -1.633274 1.361059 
		CHANNELS 3 Xrotation Zrotation Yrotation
		JOINT lShin
		{
			OFFSET -2.041588 -20.007561 0.000000 
			CHANNELS 3 Xrotation Zrotation Yrotation
			JOINT lFoot
			{
				OFFSET 0.000000 -19.190928 -1.224953 
				CHANNELS 3 Xrotation Yrotation Zrotation
				End Site
				{
					OFFSET 0.000000 -2.449906 4.627600 
				}
			}
		}
	}
	JOINT rThigh
	{
		OFFSET -5.308129 -1.633274 1.361059 
		CHANNELS 3 Xrotation Zrotation Yrotation
		JOINT rShin
		{
			OFFSET 2.041588 -20.007561 0.000000 
			CHANNELS 3 Xrotation Zrotation Yrotation
			JOINT rFoot
			{
				OFFSET 0.000000 -19.190928 -1.224953 
				CHANNELS 3 Xrotation Yrotation Zrotation
				End Site
				{
					OFFSET 0.000000 -2.449906 4.627600 
				}
			}
		}
	}
}
MOTION
Frames: 18
Frame Time: 0.011111
4.335007 50.615856 89.180351 32.067142 -4.118484 6.702288 -11.936967 8.459783 -12.426522 -22.226637 1.695226 -3.972451 -15.997430 -15.879804 -12.780007 22.093460 21.375338 -28.386993 -5.788594 -15.737329 -1.465587 27.612701 -61.120895 7.754582 -73.676201 8.559948 18.928272 8.524705 12.647240 -43.704479 7.611086 14.174596 -1.900835 -3.775918 19.280737 -2.987275 50.300179 -7.776306 8.278015 -8.534408 -12.637552 49.583843 -4.110822 0.067928 -1.063983 29.714787 -5.337626 -4.839776 -28.959118 22.563246 7.766778 -52.515060 2.011911 -4.591908 40.613976 4.592984 6.159913 -63.622555 -1.865853 -14.351286 
4.332447 50.636662 89.192184 32.152359 -4.086975 6.594901 -11.902090 8.492524 -12.358116 -22.411869 1.673893 -3.957507 -15.832624 -15.905059 -12.830933 21.943428 21.459335 -28.483894 -5.788594 -15.737329 -1.465587 27.670341 -60.799480 7.901896 -73.758751 8.543435 18.976585 8.524705 12.647240 -43.509163 7.611086 14.174596 -1.900835 -3.766600 19.290375 -2.773733 50.373299 -7.792694 8.308539 -8.534408 -12.637552 49.818218 -4.356147 0.000092 -1.488413 29.651852 -5.360541 -4.830413 -32.286415 20.279123 8.636346 -52.510155 2.050905 -4.522292 40.475784 4.602757 6.141694 -63.476608 -2.078449 -14.501754 
4.326365 50.656502 89.203079 32.279049 -3.933122 6.449338 -11.849411 8.336822 -12.280590 -22.616638 1.661071 -3.943989 -15.950259 -15.804014 -12.842701 22.211250 21.352032 -28.460157 -5.788594 -15.737329 -1.465587 27.696543 -60.407082 8.109304 -73.822060 8.532936 19.013821 8.524705 12.647240 -43.333385 7.611086 14.174596 -1.900835 -3.721220 19.260450 -2.490502 50.477448 -7.815557 8.357645 -8.534408 -12.637552 50.023296 -4.633046 -0.136464 -1.598395 29.531797 -5.370029 -4.802820 -34.002682 19.810192 9.332471 -52.602623 1.972735 -4.746181 40.494877 4.612628 6.137116 -63.005749 -2.803681 -15.037698 
4.323165 50.671867 89.221001 32.402576 -3.840040 6.346374 -11.876202 8.278703 -12.268693 -22.948505 1.737045 -3.941344 -15.943460 -15.771532 -12.772892 22.539751 21.201544 -28.290756 -5.788594 -15.737329 -1.465587 27.550434 -60.102005 8.485014 -73.912544 8.509663 19.054323 8.524705 12.647240 -43.225964 7.611086 14.174596 -1.900835 -3.861335 19.096361 -1.510718 50.718456 -7.871432 8.457041 -8.534408 -12.637552 50.697121 -4.919581 -0.214830 -1.696104 29.402554 -5.370794 -4.790836 -36.052002 19.032991 10.085463 -52.624718 1.835795 -5.279984 40.512959 4.626246 6.153164 -62.182526 -4.085490 -15.902800 
4.321565 50.689793 89.242119 32.534199 -3.671241 6.269354 -11.974562 8.094535 -12.188937 -23.027075 1.841008 -3.922640 -15.805122 -15.832498 -12.746129 22.598469 21.169203 -28.225302 -5.788594 -15.737329 -1.465587 27.439707 -60.183434 8.596112 -73.953644 8.501012 19.078520 8.524705 12.647240 -43.235725 7.611086 14.174596 -1.900835 -4.028318 18.981541 -1.073906 50.791615 -7.887207 8.487917 -8.534408 -12.637552 50.990089 -5.156275 -0.341170 -1.856529 29.272200 -5.380194 -4.772027 -37.487362 19.013592 10.850038 -52.773602 1.698548 -5.380648 40.562588 4.632008 6.130399 -61.707912 -4.925230 -16.465635 
4.311322 50.703876 89.261642 32.668098 -3.337263 6.170738 -12.084443 7.703617 -12.025609 -22.959805 2.005875 -3.874008 -15.549916 -16.043072 -12.736362 22.416979 21.406010 -28.236877 -5.788594 -15.737329 -1.465587 27.382540 -60.307755 8.600706 -73.901489 8.511099 19.053379 8.524705 12.647240 -43.235725 7.611086 14.174596 -1.900835 -4.120387 18.963354 -1.399482 50.760574 -7.880817 8.466630 -8.534408 -12.637552 50.814312 -5.356523 -0.663825 -2.051407 29.133482 -5.379898 -4.750020 -37.558918 20.638908 11.649747 -53.005543 1.591435 -4.827614 40.562225 4.635978 6.131756 -61.863338 -4.858720 -16.515501 
4.311963 50.713478 89.271568 32.726231 -3.479101 6.161432 -12.144417 7.894588 -11.976544 -22.959558 1.938437 -3.859159 -15.350007 -16.128326 -12.791578 22.188976 21.544008 -28.323225 -5.788594 -15.737329 -1.465587 27.420494 -60.132938 8.762971 -73.994789 8.491646 19.094429 8.524705 12.647240 -43.050182 7.611086 14.174596 -1.900835 -4.100593 19.050964 -1.988015 50.665840 -7.857182 8.428594 -8.534408 -12.637552 50.286964 -5.524641 -0.458963 -2.094244 29.012489 -5.390364 -4.741209 -39.127625 18.943624 11.732101 -53.047184 1.679234 -4.954238 40.572876 4.616120 6.154799 -61.824345 -4.971159 -16.649769 
4.331166 50.712837 89.267090 32.791733 -3.656626 6.187520 -12.146462 8.214732 -11.956476 -23.065975 1.736467 -3.847521 -15.156714 -16.033634 -12.869580 21.869370 21.527367 -28.447733 -5.788594 -15.737329 -1.465587 27.533991 -59.884277 9.056655 -74.095901 8.466816 19.145687 8.524705 12.647240 -42.815807 7.611086 14.174596 -1.900835 -4.008707 19.059391 -2.531586 50.624962 -7.853298 8.415450 -8.534408 -12.637552 49.808453 -5.623467 -0.244382 -1.966723 28.903294 -5.391526 -4.722170 -39.941555 17.839792 11.686643 -53.024601 1.650055 -5.432899 40.552727 4.635958 6.121215 -61.381054 -5.353503 -16.675816 
4.338528 50.714436 89.259415 32.831013 -3.533509 6.185855 -11.982216 8.156425 -11.900666 -23.114647 1.704738 -3.836998 -15.231688 -16.020607 -12.887839 21.625055 21.488831 -28.537556 -5.788594 -15.737329 -1.465587 27.619427 -60.086815 8.819236 -73.933098 8.505347 19.066422 8.524705 12.647240 -42.913464 7.611086 14.174596 -1.900835 -3.989418 19.117714 -2.817392 50.665840 -7.857182 8.428594 -8.534408 -12.637552 49.642433 -5.639452 -0.312409 -1.702282 28.852240 -5.399608 -4.719702 -39.168850 19.530048 12.055247 -53.102119 1.503193 -5.417028 40.572372 4.632521 6.131426 -61.266571 -5.390996 -16.621531 
4.339168 50.724037 89.254608 32.949974 -3.280863 6.163908 -11.884234 7.932613 -11.821586 -23.388432 1.835618 -3.818185 -15.248252 -16.107553 -12.860119 21.652075 21.305899 -28.532566 -5.788594 -15.737329 -1.465587 27.363022 -60.562592 8.514998 -73.738121 8.547594 18.964504 8.524705 12.647240 -43.440807 7.611086 14.174596 -1.900835 -4.138576 18.973389 -2.383199 50.833736 -7.896531 8.497541 -8.534408 -12.637552 49.974464 -5.752625 -0.507530 -1.461223 28.822245 -5.394908 -4.745080 -37.625725 22.374983 12.448118 -53.303993 1.318212 -5.140884 40.581223 4.635993 6.152822 -61.351688 -5.362431 -16.668457 
4.335327 50.732040 89.253960 32.990833 -3.233899 6.136747 -11.549790 7.974002 -11.851192 -23.271553 1.890523 -3.838120 -16.178532 -15.850516 -12.769182 22.009943 20.896736 -28.477011 -5.788594 -15.737329 -1.465587 27.606987 -60.706627 7.755718 -73.707870 8.555162 18.951021 8.524705 12.647240 -43.763073 7.611086 14.174596 -1.900835 -4.168597 19.374273 -2.677462 50.801456 -7.884605 8.479825 -8.534408 -12.637552 50.013535 -5.866637 -0.449179 -1.168393 28.832014 -5.399731 -4.727690 -35.801453 25.026293 12.428523 -53.373531 1.386240 -4.853816 40.562798 4.626153 6.138044 -61.606987 -5.110861 -16.599831 
4.325725 50.740685 89.238930 32.992275 -3.231455 6.115096 -11.310659 8.031368 -11.853092 -23.310808 1.946309 -3.844147 -16.401243 -15.953474 -12.689098 21.998495 21.103888 -28.388666 -5.788594 -15.737329 -1.465587 27.665285 -60.611927 7.642745 -73.830162 8.527378 19.015697 8.524705 12.647240 -43.724014 7.611086 14.174596 -1.900835 -4.219617 19.609442 -2.982148 50.634613 -7.851326 8.417098 -8.534408 -12.637552 49.769394 -6.025991 -0.351225 -0.940214 28.880417 -5.409372 -4.724629 -31.390333 29.662155 11.259079 -53.423798 1.563013 -4.440156 40.494877 4.612624 6.137115 -62.040146 -4.726637 -16.566511 
4.324124 50.759888 89.231567 32.968002 -3.307095 6.182562 -11.219714 8.176373 -11.868754 -23.496180 1.963052 -3.852893 -16.151611 -16.070511 -12.662993 21.774799 21.160461 -28.334078 -5.788594 -15.737329 -1.465587 27.493032 -60.620335 7.804797 -73.883804 8.520170 19.050100 8.524705 12.647240 -43.587292 7.611086 14.174596 -1.900835 -4.367324 19.543324 -2.606541 50.738991 -7.873039 8.458087 -8.534408 -12.637552 50.091656 -6.153773 -0.224568 -0.978456 28.931702 -5.399946 -4.726778 -25.985912 33.703014 8.939313 -53.405994 1.680091 -4.146223 40.387077 4.612409 6.117994 -62.430244 -4.586299 -16.750080 
4.356131 50.782291 89.227081 32.919395 -3.580239 6.307920 -11.191134 8.664049 -11.879073 -23.602381 1.749835 -3.858094 -16.055761 -16.206789 -12.644575 21.816288 21.147684 -28.335493 -5.788594 -15.737329 -1.465587 27.294474 -60.902939 7.693271 -73.788963 8.535804 18.990076 8.524705 12.647240 -43.860729 7.611086 14.174596 -1.900835 -4.472384 19.300783 -2.042147 51.042553 -7.938910 8.578758 -8.534408 -12.637552 50.726421 -6.239220 0.048461 -1.116797 28.933447 -5.391454 -4.715069 -23.478983 35.316833 7.701959 -53.207912 1.601149 -4.738232 40.286343 4.645677 6.101493 -62.022053 -4.979935 -16.829365 
4.385898 50.791569 89.202751 32.932590 -3.705893 6.389348 -11.203556 8.959082 -11.871761 -23.747868 1.583473 -3.858474 -15.553167 -16.333035 -12.668105 21.423452 21.326086 -28.343668 -5.788594 -15.737329 -1.465587 27.117050 -61.049049 7.684832 -73.769760 8.542717 18.988716 8.524705 12.647240 -43.958385 7.611086 14.174596 -1.900835 -4.504025 19.066874 -1.689911 51.230869 -7.979010 8.660648 -8.534408 -12.637552 50.999859 -6.284909 0.145957 -1.210619 28.915312 -5.377188 -4.729356 -25.084284 34.644054 8.561000 -53.195290 1.581612 -4.776257 40.205814 4.665410 6.101576 -62.092968 -4.769332 -16.616350 
4.383017 50.778770 89.185471 33.081257 -3.451554 6.358178 -11.363604 8.644666 -11.795262 -23.875113 1.646545 -3.829266 -14.874808 -16.481062 -12.739017 20.973448 21.605495 -28.397503 -5.788594 -15.737329 -1.465587 26.884655 -61.132534 7.920411 -73.779366 8.539261 18.990118 8.524705 12.647240 -43.929085 7.611086 14.174596 -1.900835 -4.544874 18.833111 -1.372206 51.293350 -7.989978 8.681365 -8.534408 -12.637552 51.146343 -6.334639 -0.058643 -0.963967 28.862263 -5.401041 -4.711214 -28.115843 32.862865 10.087205 -53.579330 1.670294 -3.618821 40.129951 4.631972 6.092863 -62.994671 -4.004106 -16.545002 
4.367654 50.770451 89.178108 33.183186 -3.397919 6.289594 -11.450130 8.547625 -11.690859 -23.914284 1.646613 -3.801213 -14.520982 -16.581713 -12.801327 20.760771 21.850908 -28.467373 -5.788594 -15.737329 -1.465587 26.834282 -61.198261 8.200708 -73.779366 8.539261 18.990118 8.524705 12.647240 -43.733772 7.611086 14.174596 -1.900835 -4.455295 18.704729 -1.564194 51.272820 -7.988571 8.680220 -8.534408 -12.637552 50.785015 -6.365069 -0.010090 -0.560617 28.802977 -5.400820 -4.696211 -32.732037 29.338774 12.020980 -53.831097 1.952774 -2.712079 40.097305 4.665424 6.101065 -63.865936 -3.351248 -16.581127 
4.382057 50.769489 89.168503 33.213165 -3.482538 6.268995 -11.454341 8.722554 -11.549278 -23.601742 1.484966 -3.747060 -14.674666 -16.578201 -12.804375 20.692003 22.036615 -28.481504 -5.788594 -15.737329 -1.465587 27.070988 -61.243130 8.050277 -73.707870 8.555162 18.951021 8.524705 12.647240 -43.450573 7.611086 14.174596 -1.900835 -4.396996 18.889395 -2.216552 51.011314 -7.933283 8.568474 -8.534408 -12.637552 50.404152 -6.363924 0.136261 -0.285987 28.683048 -5.400720 -4.705112 -34.575977 27.642668 12.618619 -53.967731 2.148369 -2.317068 40.107727 4.659163 6.100574 -64.315582 -3.156339 -16.747370 
